<mxfile host="Electron" agent="Mozilla/5.0 (Macintosh; Intel Mac OS X 10_15_7) AppleWebKit/537.36 (KHTML, like Gecko) draw.io/26.1.1 Chrome/132.0.6834.210 Electron/34.3.3 Safari/537.36" version="26.1.1">
  <diagram id="z5ZE0MZn-yw_QPYjwYFr" name="Page-1">
    <mxGraphModel dx="1114" dy="999" grid="1" gridSize="10" guides="1" tooltips="1" connect="1" arrows="1" fold="1" page="1" pageScale="1" pageWidth="850" pageHeight="1100" math="0" shadow="0">
      <root>
        <mxCell id="0" />
        <mxCell id="1" parent="0" />
        <mxCell id="2" value="Python项目标准组织结构" style="text;html=1;strokeColor=none;fillColor=none;align=center;verticalAlign=middle;whiteSpace=wrap;rounded=0;fontSize=24;fontStyle=1" parent="1" vertex="1">
          <mxGeometry x="245" y="20" width="360" height="30" as="geometry" />
        </mxCell>
        <mxCell id="3" value="" style="swimlane;startSize=0;fontSize=14;fillColor=#f5f5f5;strokeColor=#666666;fontColor=#333333;" parent="1" vertex="1">
          <mxGeometry x="160" y="70" width="640" height="840" as="geometry" />
        </mxCell>
        <mxCell id="4" value="项目目录结构" style="text;html=1;strokeColor=none;fillColor=none;align=center;verticalAlign=middle;whiteSpace=wrap;rounded=0;fontSize=18;fontStyle=1" parent="3" vertex="1">
          <mxGeometry x="220" y="10" width="200" height="30" as="geometry" />
        </mxCell>
        <mxCell id="5" value="my_project/&#xa;├── .git/                    # Git版本控制目录&#xa;├── .gitignore              # Git忽略文件&#xa;├── README.md              # 项目说明文档&#xa;├── LICENSE                # 开源许可证&#xa;├── setup.py               # 项目安装配置&#xa;├── pyproject.toml         # 项目构建配置(PEP 517/518)&#xa;├── requirements.txt       # 项目依赖列表&#xa;├── .env                   # 环境变量(不应提交到版本控制)&#xa;├── .pre-commit-config.yaml # 预提交钩子配置&#xa;├── Makefile               # 自动化构建指令&#xa;│&#xa;├── docs/                  # 文档目录&#xa;│   ├── index.md           # 文档首页&#xa;│   ├── api.md             # API文档&#xa;│   └── tutorials/         # 教程目录&#xa;│&#xa;├── my_project/           # 项目主包(与项目同名)&#xa;│   ├── __init__.py        # 包初始化文件&#xa;│   ├── __main__.py        # 模块主入口点&#xa;│   ├── core.py            # 核心功能模块&#xa;│   ├── helpers.py         # 辅助函数&#xa;│   └── subpackage/        # 子包目录&#xa;│       ├── __init__.py    # 子包初始化文件&#xa;│       └── module.py      # 子模块&#xa;│&#xa;├── tests/                # 测试目录&#xa;│   ├── __init__.py        # 测试包初始化&#xa;│   ├── conftest.py        # pytest配置&#xa;│   ├── test_core.py       # 核心模块测试&#xa;│   └── test_helpers.py    # 辅助函数测试&#xa;│&#xa;├── notebooks/            # Jupyter笔记本目录&#xa;│   └── exploration.ipynb  # 数据探索笔记本&#xa;│&#xa;├── data/                 # 数据目录&#xa;│   ├── raw/               # 原始数据&#xa;│   └── processed/         # 处理后的数据&#xa;│&#xa;└── scripts/              # 工具脚本目录&#xa;    ├── setup_env.sh        # 环境设置脚本&#xa;    └── deploy.py          # 部署脚本" style="text;html=1;strokeColor=#666666;fillColor=#f5f5f5;align=left;verticalAlign=top;whiteSpace=wrap;rounded=0;fontSize=12;fontColor=#333333;spacingLeft=8;fontFamily=Courier New;" parent="3" vertex="1">
          <mxGeometry x="30" y="50" width="470" height="670" as="geometry" />
        </mxCell>
        <mxCell id="6" value="Python包结构" style="swimlane;fontStyle=0;childLayout=stackLayout;horizontal=1;startSize=30;horizontalStack=0;resizeParent=1;resizeParentMax=0;resizeLast=0;collapsible=1;marginBottom=0;whiteSpace=wrap;html=1;fontSize=14;fillColor=#dae8fc;strokeColor=#6c8ebf;" parent="3" vertex="1">
          <mxGeometry x="520" y="50" width="100" height="150" as="geometry" />
        </mxCell>
        <mxCell id="7" value="模块级组织" style="text;strokeColor=none;fillColor=none;align=left;verticalAlign=middle;spacingLeft=4;spacingRight=4;overflow=hidden;points=[[0,0.5],[1,0.5]];portConstraint=eastwest;rotatable=0;whiteSpace=wrap;html=1;fontSize=12;" parent="6" vertex="1">
          <mxGeometry y="30" width="100" height="30" as="geometry" />
        </mxCell>
        <mxCell id="8" value="功能分组" style="text;strokeColor=none;fillColor=none;align=left;verticalAlign=middle;spacingLeft=4;spacingRight=4;overflow=hidden;points=[[0,0.5],[1,0.5]];portConstraint=eastwest;rotatable=0;whiteSpace=wrap;html=1;fontSize=12;" parent="6" vertex="1">
          <mxGeometry y="60" width="100" height="30" as="geometry" />
        </mxCell>
        <mxCell id="9" value="层次化结构" style="text;strokeColor=none;fillColor=none;align=left;verticalAlign=middle;spacingLeft=4;spacingRight=4;overflow=hidden;points=[[0,0.5],[1,0.5]];portConstraint=eastwest;rotatable=0;whiteSpace=wrap;html=1;fontSize=12;" parent="6" vertex="1">
          <mxGeometry y="90" width="100" height="30" as="geometry" />
        </mxCell>
        <mxCell id="10" value="命名空间分离" style="text;strokeColor=none;fillColor=none;align=left;verticalAlign=middle;spacingLeft=4;spacingRight=4;overflow=hidden;points=[[0,0.5],[1,0.5]];portConstraint=eastwest;rotatable=0;whiteSpace=wrap;html=1;fontSize=12;" parent="6" vertex="1">
          <mxGeometry y="120" width="100" height="30" as="geometry" />
        </mxCell>
        <mxCell id="11" value="常见项目类型" style="swimlane;fontStyle=0;childLayout=stackLayout;horizontal=1;startSize=30;horizontalStack=0;resizeParent=1;resizeParentMax=0;resizeLast=0;collapsible=1;marginBottom=0;whiteSpace=wrap;html=1;fontSize=14;fillColor=#d5e8d4;strokeColor=#82b366;" parent="3" vertex="1">
          <mxGeometry x="520" y="220" width="100" height="180" as="geometry" />
        </mxCell>
        <mxCell id="12" value="库/框架" style="text;strokeColor=none;fillColor=none;align=left;verticalAlign=middle;spacingLeft=4;spacingRight=4;overflow=hidden;points=[[0,0.5],[1,0.5]];portConstraint=eastwest;rotatable=0;whiteSpace=wrap;html=1;fontSize=12;" parent="11" vertex="1">
          <mxGeometry y="30" width="100" height="30" as="geometry" />
        </mxCell>
        <mxCell id="13" value="应用" style="text;strokeColor=none;fillColor=none;align=left;verticalAlign=middle;spacingLeft=4;spacingRight=4;overflow=hidden;points=[[0,0.5],[1,0.5]];portConstraint=eastwest;rotatable=0;whiteSpace=wrap;html=1;fontSize=12;" parent="11" vertex="1">
          <mxGeometry y="60" width="100" height="30" as="geometry" />
        </mxCell>
        <mxCell id="14" value="Web应用" style="text;strokeColor=none;fillColor=none;align=left;verticalAlign=middle;spacingLeft=4;spacingRight=4;overflow=hidden;points=[[0,0.5],[1,0.5]];portConstraint=eastwest;rotatable=0;whiteSpace=wrap;html=1;fontSize=12;" parent="11" vertex="1">
          <mxGeometry y="90" width="100" height="30" as="geometry" />
        </mxCell>
        <mxCell id="15" value="数据科学项目" style="text;strokeColor=none;fillColor=none;align=left;verticalAlign=middle;spacingLeft=4;spacingRight=4;overflow=hidden;points=[[0,0.5],[1,0.5]];portConstraint=eastwest;rotatable=0;whiteSpace=wrap;html=1;fontSize=12;" parent="11" vertex="1">
          <mxGeometry y="120" width="100" height="30" as="geometry" />
        </mxCell>
        <mxCell id="16" value="命令行工具" style="text;strokeColor=none;fillColor=none;align=left;verticalAlign=middle;spacingLeft=4;spacingRight=4;overflow=hidden;points=[[0,0.5],[1,0.5]];portConstraint=eastwest;rotatable=0;whiteSpace=wrap;html=1;fontSize=12;" parent="11" vertex="1">
          <mxGeometry y="150" width="100" height="30" as="geometry" />
        </mxCell>
        <mxCell id="17" value="最佳实践" style="swimlane;fontStyle=0;childLayout=stackLayout;horizontal=1;startSize=30;horizontalStack=0;resizeParent=1;resizeParentMax=0;resizeLast=0;collapsible=1;marginBottom=0;whiteSpace=wrap;html=1;fontSize=14;fillColor=#ffe6cc;strokeColor=#d79b00;" parent="3" vertex="1">
          <mxGeometry x="520" y="420" width="100" height="150" as="geometry" />
        </mxCell>
        <mxCell id="18" value="模块化设计" style="text;strokeColor=none;fillColor=none;align=left;verticalAlign=middle;spacingLeft=4;spacingRight=4;overflow=hidden;points=[[0,0.5],[1,0.5]];portConstraint=eastwest;rotatable=0;whiteSpace=wrap;html=1;fontSize=12;" parent="17" vertex="1">
          <mxGeometry y="30" width="100" height="30" as="geometry" />
        </mxCell>
        <mxCell id="19" value="关注点分离" style="text;strokeColor=none;fillColor=none;align=left;verticalAlign=middle;spacingLeft=4;spacingRight=4;overflow=hidden;points=[[0,0.5],[1,0.5]];portConstraint=eastwest;rotatable=0;whiteSpace=wrap;html=1;fontSize=12;" parent="17" vertex="1">
          <mxGeometry y="60" width="100" height="30" as="geometry" />
        </mxCell>
        <mxCell id="20" value="可测试性" style="text;strokeColor=none;fillColor=none;align=left;verticalAlign=middle;spacingLeft=4;spacingRight=4;overflow=hidden;points=[[0,0.5],[1,0.5]];portConstraint=eastwest;rotatable=0;whiteSpace=wrap;html=1;fontSize=12;" parent="17" vertex="1">
          <mxGeometry y="90" width="100" height="30" as="geometry" />
        </mxCell>
        <mxCell id="21" value="一致性" style="text;strokeColor=none;fillColor=none;align=left;verticalAlign=middle;spacingLeft=4;spacingRight=4;overflow=hidden;points=[[0,0.5],[1,0.5]];portConstraint=eastwest;rotatable=0;whiteSpace=wrap;html=1;fontSize=12;" parent="17" vertex="1">
          <mxGeometry y="120" width="100" height="30" as="geometry" />
        </mxCell>
        <mxCell id="22" value="基础文件结构" style="text;html=1;strokeColor=none;fillColor=none;align=center;verticalAlign=middle;whiteSpace=wrap;rounded=0;fontSize=16;fontStyle=1" parent="3" vertex="1">
          <mxGeometry x="220" y="730" width="200" height="30" as="geometry" />
        </mxCell>
        <mxCell id="23" value="__init__.py" style="swimlane;fontStyle=0;childLayout=stackLayout;horizontal=1;startSize=30;horizontalStack=0;resizeParent=1;resizeParentMax=0;resizeLast=0;collapsible=1;marginBottom=0;whiteSpace=wrap;html=1;fontSize=14;fillColor=#fff2cc;strokeColor=#d6b656;" parent="3" vertex="1">
          <mxGeometry x="30" y="770" width="170" height="60" as="geometry" />
        </mxCell>
        <mxCell id="24" value="# 声明包的公共API&#xa;__all__ = [&#39;function_a&#39;, &#39;ClassA&#39;]" style="text;strokeColor=none;fillColor=none;align=left;verticalAlign=middle;spacingLeft=4;spacingRight=4;overflow=hidden;points=[[0,0.5],[1,0.5]];portConstraint=eastwest;rotatable=0;whiteSpace=wrap;html=1;fontSize=12;fontFamily=Courier New;" parent="23" vertex="1">
          <mxGeometry y="30" width="170" height="30" as="geometry" />
        </mxCell>
        <mxCell id="29" value="setup.py" style="swimlane;fontStyle=0;childLayout=stackLayout;horizontal=1;startSize=30;horizontalStack=0;resizeParent=1;resizeParentMax=0;resizeLast=0;collapsible=1;marginBottom=0;whiteSpace=wrap;html=1;fontSize=14;fillColor=#fff2cc;strokeColor=#d6b656;" parent="3" vertex="1">
          <mxGeometry x="220" y="770" width="180" height="60" as="geometry" />
        </mxCell>
        <mxCell id="30" value="from setuptools import setup&#xa;setup(name=&#39;my_project&#39;, ...)" style="text;strokeColor=none;fillColor=none;align=left;verticalAlign=middle;spacingLeft=4;spacingRight=4;overflow=hidden;points=[[0,0.5],[1,0.5]];portConstraint=eastwest;rotatable=0;whiteSpace=wrap;html=1;fontSize=12;fontFamily=Courier New;" parent="29" vertex="1">
          <mxGeometry y="30" width="180" height="30" as="geometry" />
        </mxCell>
        <mxCell id="31" value="test_module.py" style="swimlane;fontStyle=0;childLayout=stackLayout;horizontal=1;startSize=30;horizontalStack=0;resizeParent=1;resizeParentMax=0;resizeLast=0;collapsible=1;marginBottom=0;whiteSpace=wrap;html=1;fontSize=14;fillColor=#fff2cc;strokeColor=#d6b656;" parent="3" vertex="1">
          <mxGeometry x="420" y="770" width="200" height="60" as="geometry" />
        </mxCell>
        <mxCell id="32" value="def test_function():&#xa;    assert func() == expected" style="text;strokeColor=none;fillColor=none;align=left;verticalAlign=middle;spacingLeft=4;spacingRight=4;overflow=hidden;points=[[0,0.5],[1,0.5]];portConstraint=eastwest;rotatable=0;whiteSpace=wrap;html=1;fontSize=12;fontFamily=Courier New;" parent="31" vertex="1">
          <mxGeometry y="30" width="200" height="30" as="geometry" />
        </mxCell>
        <mxCell id="33" value="构建工具" style="swimlane;fontStyle=0;childLayout=stackLayout;horizontal=1;startSize=30;horizontalStack=0;resizeParent=1;resizeParentMax=0;resizeLast=0;collapsible=1;marginBottom=0;whiteSpace=wrap;html=1;fontSize=14;fillColor=#e1d5e7;strokeColor=#9673a6;" parent="3" vertex="1">
          <mxGeometry x="520" y="590" width="100" height="150" as="geometry" />
        </mxCell>
        <mxCell id="34" value="setuptools" style="text;strokeColor=none;fillColor=none;align=left;verticalAlign=middle;spacingLeft=4;spacingRight=4;overflow=hidden;points=[[0,0.5],[1,0.5]];portConstraint=eastwest;rotatable=0;whiteSpace=wrap;html=1;fontSize=12;" parent="33" vertex="1">
          <mxGeometry y="30" width="100" height="30" as="geometry" />
        </mxCell>
        <mxCell id="35" value="poetry" style="text;strokeColor=none;fillColor=none;align=left;verticalAlign=middle;spacingLeft=4;spacingRight=4;overflow=hidden;points=[[0,0.5],[1,0.5]];portConstraint=eastwest;rotatable=0;whiteSpace=wrap;html=1;fontSize=12;" parent="33" vertex="1">
          <mxGeometry y="60" width="100" height="30" as="geometry" />
        </mxCell>
        <mxCell id="36" value="flit" style="text;strokeColor=none;fillColor=none;align=left;verticalAlign=middle;spacingLeft=4;spacingRight=4;overflow=hidden;points=[[0,0.5],[1,0.5]];portConstraint=eastwest;rotatable=0;whiteSpace=wrap;html=1;fontSize=12;" parent="33" vertex="1">
          <mxGeometry y="90" width="100" height="30" as="geometry" />
        </mxCell>
        <mxCell id="37" value="hatch" style="text;strokeColor=none;fillColor=none;align=left;verticalAlign=middle;spacingLeft=4;spacingRight=4;overflow=hidden;points=[[0,0.5],[1,0.5]];portConstraint=eastwest;rotatable=0;whiteSpace=wrap;html=1;fontSize=12;" parent="33" vertex="1">
          <mxGeometry y="120" width="100" height="30" as="geometry" />
        </mxCell>
        <mxCell id="38" value="" style="group" parent="1" vertex="1" connectable="0">
          <mxGeometry x="60" y="930" width="730" height="270" as="geometry" />
        </mxCell>
        <mxCell id="39" value="" style="rounded=0;whiteSpace=wrap;html=1;fontSize=12;fillColor=#f5f5f5;strokeColor=#666666;fontColor=#333333;" parent="38" vertex="1">
          <mxGeometry width="730" height="270" as="geometry" />
        </mxCell>
        <mxCell id="40" value="项目结构最佳实践" style="text;html=1;strokeColor=none;fillColor=none;align=center;verticalAlign=middle;whiteSpace=wrap;rounded=0;fontSize=18;fontStyle=1" parent="38" vertex="1">
          <mxGeometry x="265" y="15.625" width="200" height="46.875" as="geometry" />
        </mxCell>
        <mxCell id="41" value="1. 使用一致的项目结构，遵循Python社区标准&#xa;&#xa;2. 将业务逻辑与表现层分离&#xa;&#xa;3. 构建可测试的模块，确保高测试覆盖率&#xa;&#xa;4. 在__init__.py中定义清晰的公共API&#xa;&#xa;5. 使用适当的依赖管理工具（如poetry或pipenv）&#xa;&#xa;6. 遵循PEP 8编码规范和PEP 257文档字符串规范" style="text;html=1;strokeColor=none;fillColor=none;align=left;verticalAlign=top;whiteSpace=wrap;rounded=0;fontSize=14;" parent="38" vertex="1">
          <mxGeometry x="15" y="62.505" width="350" height="156.25" as="geometry" />
        </mxCell>
        <mxCell id="42" value="7. 使用虚拟环境隔离项目依赖&#xa;&#xa;8. 配置适当的linting和静态类型检查工具&#xa;&#xa;9. 添加详细的README和文档&#xa;&#xa;10. 使用版本控制并遵循语义化版本规范&#xa;&#xa;11. 考虑使用预提交钩子确保代码质量" style="text;html=1;strokeColor=none;fillColor=none;align=left;verticalAlign=top;whiteSpace=wrap;rounded=0;fontSize=14;" parent="38" vertex="1">
          <mxGeometry x="390" y="70.005" width="320" height="156.25" as="geometry" />
        </mxCell>
        <mxCell id="43" value="常见组织模式" style="text;html=1;strokeColor=none;fillColor=none;align=center;verticalAlign=middle;whiteSpace=wrap;rounded=0;fontSize=18;fontStyle=1" parent="1" vertex="1">
          <mxGeometry x="325" y="1253" width="200" height="30" as="geometry" />
        </mxCell>
        <mxCell id="44" value="" style="group" parent="1" vertex="1" connectable="0">
          <mxGeometry x="60" y="1283" width="730" height="307" as="geometry" />
        </mxCell>
        <mxCell id="45" value="" style="rounded=0;whiteSpace=wrap;html=1;fontSize=12;fillColor=#f5f5f5;strokeColor=#666666;fontColor=#333333;" parent="44" vertex="1">
          <mxGeometry width="730" height="307" as="geometry" />
        </mxCell>
        <mxCell id="46" value="扁平结构" style="rounded=1;whiteSpace=wrap;html=1;fontSize=14;fillColor=#dae8fc;strokeColor=#6c8ebf;fontStyle=1" parent="44" vertex="1">
          <mxGeometry x="55" y="29.23809523809524" width="120" height="58.47619047619048" as="geometry" />
        </mxCell>
        <mxCell id="47" value="适用于小型项目，所有模块直接位于主包下，无嵌套子包&#xa;&#xa;my_project/&#xa;├── __init__.py&#xa;├── core.py&#xa;├── helpers.py&#xa;└── models.py" style="text;html=1;strokeColor=none;fillColor=none;align=left;verticalAlign=top;whiteSpace=wrap;rounded=0;fontSize=12;fontFamily=Courier New;" parent="44" vertex="1">
          <mxGeometry x="35" y="102.33333333333333" width="160" height="190.04761904761907" as="geometry" />
        </mxCell>
        <mxCell id="48" value="功能组织" style="rounded=1;whiteSpace=wrap;html=1;fontSize=14;fillColor=#dae8fc;strokeColor=#6c8ebf;fontStyle=1" parent="44" vertex="1">
          <mxGeometry x="305" y="29.23809523809524" width="120" height="58.47619047619048" as="geometry" />
        </mxCell>
        <mxCell id="49" value="按功能划分模块和子包&#xa;&#xa;my_project/&#xa;├── __init__.py&#xa;├── auth/&#xa;│   ├── __init__.py&#xa;│   └── login.py&#xa;├── models/&#xa;│   ├── __init__.py&#xa;│   └── user.py&#xa;└── utils/&#xa;    ├── __init__.py&#xa;    └── helpers.py" style="text;html=1;strokeColor=none;fillColor=none;align=left;verticalAlign=top;whiteSpace=wrap;rounded=0;fontSize=12;fontFamily=Courier New;" parent="44" vertex="1">
          <mxGeometry x="235" y="102.33333333333333" width="260" height="190.04761904761907" as="geometry" />
        </mxCell>
        <mxCell id="50" value="层次化架构" style="rounded=1;whiteSpace=wrap;html=1;fontSize=14;fillColor=#dae8fc;strokeColor=#6c8ebf;fontStyle=1" parent="44" vertex="1">
          <mxGeometry x="555" y="29.23809523809524" width="120" height="58.47619047619048" as="geometry" />
        </mxCell>
        <mxCell id="51" value="将项目按层次结构组织&#xa;&#xa;my_project/&#xa;├── __init__.py&#xa;├── api/          # 接口层&#xa;├── services/     # 服务层&#xa;├── domain/       # 领域模型&#xa;├── repository/   # 数据访问&#xa;└── infrastructure/ # 基础设施" style="text;html=1;strokeColor=none;fillColor=none;align=left;verticalAlign=top;whiteSpace=wrap;rounded=0;fontSize=12;fontFamily=Courier New;" parent="44" vertex="1">
          <mxGeometry x="535" y="102.33333333333333" width="160" height="190.04761904761907" as="geometry" />
        </mxCell>
        <mxCell id="52" value="" style="group" parent="1" vertex="1" connectable="0">
          <mxGeometry x="60" y="1622" width="730" height="428" as="geometry" />
        </mxCell>
        <mxCell id="53" value="" style="rounded=0;whiteSpace=wrap;html=1;fontSize=12;fillColor=#f5f5f5;strokeColor=#666666;fontColor=#333333;" parent="52" vertex="1">
          <mxGeometry width="730" height="428" as="geometry" />
        </mxCell>
        <mxCell id="54" value="Web应用结构 (Flask/Django)" style="text;html=1;strokeColor=none;fillColor=none;align=center;verticalAlign=middle;whiteSpace=wrap;rounded=0;fontSize=16;fontStyle=1" parent="52" vertex="1">
          <mxGeometry x="215" y="23.77777777777777" width="300" height="71.33333333333333" as="geometry" />
        </mxCell>
        <mxCell id="55" value="Flask项目" style="rounded=1;whiteSpace=wrap;html=1;fontSize=14;fillColor=#ffe6cc;strokeColor=#d79b00;fontStyle=1" parent="52" vertex="1">
          <mxGeometry x="40" y="95.11" width="120" height="84.89" as="geometry" />
        </mxCell>
        <mxCell id="56" value="my_app/&#xa;├── app/&#xa;│   ├── __init__.py    # 应用工厂&#xa;│   ├── models.py      # 数据模型&#xa;│   ├── routes.py      # 路由定义&#xa;│   ├── forms.py       # 表单定义&#xa;│   └── templates/     # 模板目录&#xa;└── run.py            # 启动脚本" style="text;html=1;strokeColor=none;fillColor=none;align=left;verticalAlign=top;whiteSpace=wrap;rounded=0;fontSize=12;fontFamily=Courier New;" parent="52" vertex="1">
          <mxGeometry x="30" y="197.99777777777774" width="160" height="166.44444444444443" as="geometry" />
        </mxCell>
        <mxCell id="57" value="Django项目" style="rounded=1;whiteSpace=wrap;html=1;fontSize=14;fillColor=#ffe6cc;strokeColor=#d79b00;fontStyle=1" parent="52" vertex="1">
          <mxGeometry x="285" y="95.11" width="120" height="84.89" as="geometry" />
        </mxCell>
        <mxCell id="58" value="my_site/&#xa;├── my_site/          # 项目配置目录&#xa;│   ├── __init__.py&#xa;│   ├── settings.py   # 项目设置&#xa;│   ├── urls.py       # URL配置&#xa;│   └── wsgi.py       # WSGI配置&#xa;├── my_app/           # 应用目录&#xa;│   ├── __init__.py&#xa;│   ├── admin.py      # 管理界面配置&#xa;│   ├── models.py     # 数据模型&#xa;│   ├── tests.py      # 测试&#xa;│   └── views.py      # 视图函数&#xa;└── manage.py         # 管理脚本" style="text;html=1;strokeColor=none;fillColor=none;align=left;verticalAlign=top;whiteSpace=wrap;rounded=0;fontSize=12;fontFamily=Courier New;" parent="52" vertex="1">
          <mxGeometry x="270" y="207.99777777777774" width="240" height="166.44444444444443" as="geometry" />
        </mxCell>
        <mxCell id="59" value="数据科学项目" style="rounded=1;whiteSpace=wrap;html=1;fontSize=14;fillColor=#ffe6cc;strokeColor=#d79b00;fontStyle=1" parent="52" vertex="1">
          <mxGeometry x="570" y="95.11" width="120" height="84.89" as="geometry" />
        </mxCell>
        <mxCell id="60" value="ds_project/&#xa;├── data/              # 数据目录&#xa;├── notebooks/         # 笔记本目录&#xa;├── src/               # 源代码&#xa;│   ├── features/      # 特征工程&#xa;│   ├── models/        # 模型定义&#xa;│   └── visualization/ # 可视化&#xa;└── reports/           # 报告目录" style="text;html=1;strokeColor=none;fillColor=none;align=left;verticalAlign=top;whiteSpace=wrap;rounded=0;fontSize=12;fontFamily=Courier New;" parent="52" vertex="1">
          <mxGeometry x="520" y="207.99777777777774" width="220" height="166.44444444444443" as="geometry" />
        </mxCell>
      </root>
    </mxGraphModel>
  </diagram>
</mxfile>
